{
  "source": "C:\\Users\\Peter\\Desktop\\stuff\\MIUN\\quantitative_research\\video_compression\\videos\\BVI-HD\\RockWave_1920x1080_30fps.mp4",
  "output": "C:\\Users\\Peter\\Desktop\\stuff\\MIUN\\quantitative_research\\video_compression\\compressed_videos\\BVI-HD\\h264\\1.5\\RockWave_1920x1080_30fps_h264.mp4",
  "codec": "h264",
  "ok": "Input #0, mov,mp4,m4a,3gp,3g2,mj2, from 'C:\\Users\\Peter\\Desktop\\stuff\\MIUN\\quantitative_research\\video_compression\\videos\\BVI-HD\\RockWave_1920x1080_30fps.mp4':\n  Metadata:\n    major_brand     : isom\n    minor_version   : 512\n    compatible_brands: isomiso2avc1mp41\n    encoder         : Lavf54.28.101\n  Duration: 00:00:05.00, start: 0.000000, bitrate: 303557 kb/s\n  Stream #0:0[0x1](und): Video: h264 (High 4:4:4 Predictive) (avc1 / 0x31637661), yuv420p(progressive), 1920x1080, 303553 kb/s, 30 fps, 30 tbr, 30 tbn (default)\n    Metadata:\n      handler_name    : VideoHandler\n      vendor_id       : [0][0][0][0]\n[out#0/mp4 @ 000001823de09a00] Codec AVOption b:a (set bitrate (in bits/s)) has not been used for any stream. The most likely reason is either wrong type (e.g. a video option with no video streams) or that it is a private option of some decoder which was not actually used for any stream.\nStream mapping:\n  Stream #0:0 -> #0:0 (h264 (native) -> h264 (libx264))\nPress [q] to stop, [?] for help\n[libx264 @ 00000182401975c0] using cpu capabilities: MMX2 SSE2Fast SSSE3 SSE4.2 AVX FMA3 BMI2 AVX2\n[libx264 @ 00000182401975c0] profile High, level 5.0, 4:2:0, 8-bit\n[libx264 @ 00000182401975c0] 264 - core 165 r3222 b35605a - H.264/MPEG-4 AVC codec - Copyleft 2003-2025 - http://www.videolan.org/x264.html - options: cabac=1 ref=5 deblock=1:0:0 analyse=0x3:0x113 me=hex subme=8 psy=1 psy_rd=1.00:0.00 mixed_ref=1 me_range=16 chroma_me=1 trellis=2 8x8dct=1 cqm=0 deadzone=21,11 fast_pskip=1 chroma_qp_offset=-2 threads=18 lookahead_threads=3 sliced_threads=0 nr=0 decimate=1 interlaced=0 bluray_compat=0 constrained_intra=0 bframes=3 b_pyramid=2 b_adapt=1 b_bias=0 direct=3 weightb=1 open_gop=0 weightp=2 keyint=250 keyint_min=25 scenecut=40 intra_refresh=0 rc_lookahead=50 rc=cbr mbtree=1 bitrate=1500 ratetol=1.0 qcomp=0.60 qpmin=0 qpmax=69 qpstep=4 vbv_maxrate=1500 vbv_bufsize=1500 nal_hrd=none filler=0 ip_ratio=1.40 aq=1:1.00\nOutput #0, mp4, to 'C:\\Users\\Peter\\Desktop\\stuff\\MIUN\\quantitative_research\\video_compression\\compressed_videos\\BVI-HD\\h264\\1.5\\RockWave_1920x1080_30fps_h264.mp4':\n  Metadata:\n    major_brand     : isom\n    minor_version   : 512\n    compatible_brands: isomiso2avc1mp41\n    encoder         : Lavf62.3.100\n  Stream #0:0(und): Video: h264 (avc1 / 0x31637661), yuv420p(tv, progressive), 1920x1080, q=2-31, 1500 kb/s, 30 fps, 15360 tbn (default)\n    Metadata:\n      encoder         : Lavc62.11.100 libx264\n      handler_name    : VideoHandler\n      vendor_id       : [0][0][0][0]\n    Side data:\n      cpb: bitrate max/min/avg: 1500000/0/1500000 buffer size: 1500000 vbv_delay: N/A\nframe=    0 fps=0.0 q=0.0 size=       0KiB time=N/A bitrate=N/A speed=N/A elapsed=0:00:00.51    \nframe=    0 fps=0.0 q=0.0 size=       0KiB time=N/A bitrate=N/A speed=N/A elapsed=0:00:01.02    \nframe=   17 fps= 11 q=49.0 size=       0KiB time=00:00:00.50 bitrate=   0.8kbits/s speed=0.324x elapsed=0:00:01.54    \nframe=   48 fps= 23 q=48.0 size=       0KiB time=00:00:01.33 bitrate=   0.3kbits/s speed=0.636x elapsed=0:00:02.09    \nframe=   76 fps= 28 q=48.0 size=     256KiB time=00:00:02.46 bitrate= 850.4kbits/s speed=0.911x elapsed=0:00:02.70    \nframe=  113 fps= 35 q=47.0 size=     512KiB time=00:00:03.70 bitrate=1133.7kbits/s speed=1.15x elapsed=0:00:03.21    \n[mp4 @ 000001823de11440] Starting second pass: moving the moov atom to the beginning of the file\n[out#0/mp4 @ 000001823de09a00] video:820KiB audio:0KiB subtitle:0KiB other streams:0KiB global headers:0KiB muxing overhead: 0.316040%\nframe=  150 fps= 42 q=-1.0 Lsize=     823KiB time=00:00:04.93 bitrate=1366.6kbits/s speed=1.37x elapsed=0:00:03.60    \n[libx264 @ 00000182401975c0] frame I:2     Avg QP:45.23  size: 24716\n[libx264 @ 00000182401975c0] frame P:38    Avg QP:47.78  size: 10009\n[libx264 @ 00000182401975c0] frame B:110   Avg QP:48.06  size:  3723\n[libx264 @ 00000182401975c0] consecutive B-frames:  2.0%  0.0%  2.0% 96.0%\n[libx264 @ 00000182401975c0] mb I  I16..4: 38.7% 59.1%  2.2%\n[libx264 @ 00000182401975c0] mb P  I16..4:  5.8%  4.3%  0.0%  P16..4: 28.3%  2.7%  3.8%  0.0%  0.0%    skip:55.1%\n[libx264 @ 00000182401975c0] mb B  I16..4:  0.0%  0.1%  0.0%  B16..8: 26.2%  0.9%  0.0%  direct: 0.4%  skip:72.3%  L0:42.1% L1:57.5% BI: 0.3%\n[libx264 @ 00000182401975c0] 8x8 transform intra:48.7% inter:92.7%\n[libx264 @ 00000182401975c0] direct mvs  spatial:90.9% temporal:9.1%\n[libx264 @ 00000182401975c0] coded y,uvDC,uvAC intra: 19.2% 10.2% 0.0% inter: 3.7% 0.3% 0.0%\n[libx264 @ 00000182401975c0] i16 v,h,dc,p: 36% 33% 11% 20%\n[libx264 @ 00000182401975c0] i8 v,h,dc,ddl,ddr,vr,hd,vl,hu:  5%  3% 27% 12% 15%  9% 13%  7% 11%\n[libx264 @ 00000182401975c0] i4 v,h,dc,ddl,ddr,vr,hd,vl,hu:  3%  5% 13% 14% 15%  9% 15%  7% 20%\n[libx264 @ 00000182401975c0] i8c dc,h,v,p: 97%  3%  1%  0%\n[libx264 @ 00000182401975c0] Weighted P-Frames: Y:7.9% UV:0.0%\n[libx264 @ 00000182401975c0] ref P L0: 52.6%  3.7% 21.4% 10.3% 11.2%  0.9%\n[libx264 @ 00000182401975c0] ref B L0: 79.1% 13.2%  5.4%  2.3%\n[libx264 @ 00000182401975c0] ref B L1: 93.6%  6.4%\n[libx264 @ 00000182401975c0] kb/s:1342.91\n",
  "seconds": 3.8212649822235107,
  "probe_out": {}
}